<?xml version="1.0" encoding="UTF-8"?>
<svg data-bbox="18 16.209 253.488 38.291" viewBox="0 0 300 75" height="100" width="400" xmlns="http://www.w3.org/2000/svg" data-type="color">
    <g>
        <path d="M35.4 17.5c-.4.9-.2 2.1.4 2.7 1.5 1.5 4.4.1 4-1.9-.4-2.3-3.6-2.9-4.4-.8z" fill="#02cf8b" data-color="1"/>
        <path d="M26.4 26.7C19.6 34.6 18 37.1 18 40.3c0 5.5 3 9.1 9.4 11.1 3.7 1.2 8.1-1.4 14.4-8.5 6.4-7.3 7.4-9.5 4.5-10.6-1.2-.5-3.4 1.4-8.1 6.5-5.1 5.7-7 7.2-9.2 7.2-2.9 0-6-3-6-5.7 0-.7 3-4.7 6.6-8.9C36.1 24 37.1 21 33.2 21c-1 0-4 2.6-6.8 5.7z" fill="#02cf8b" data-color="1"/>
        <path d="M42.3 23.7c-2.1.4-8.6 6.9-14.1 14.1-2 2.6-2.2 3.5-1.2 4.7.7.8 1.6 1.5 2.1 1.5.4 0 3.6-3.4 7-7.5 6.6-8.1 9.8-9.4 13.2-5.7 2.8 3.1 2 5.5-4.5 13.1-5 5.9-6 7.6-5.1 8.9.5 1 1.5 1.7 2.1 1.7.7 0 4.1-3.5 7.7-7.8C55.1 40 56 38.4 56 34.9c0-2.2-.8-5.1-1.7-6.6-1.5-2.3-7.1-5.5-9-5.2-.4.1-1.8.4-3 .6z" fill="#02cf8b" data-color="1"/>
        <path d="M159 34.8c0 10.1.7 12.2 4.2 12.2 2 0 2.5-2.8.6-3.5-1-.4-1.2-3-1-9.5.4-8.6.3-9-1.7-9s-2.1.5-2.1 9.8z" fill="#02cf8b" data-color="1"/>
        <path d="M184.4 26.5c-.8 1.9 1.2 3.6 3.3 2.8 1.9-.7 1.2-3.7-1-4.1-.9-.2-2 .4-2.3 1.3z" fill="#02cf8b" data-color="1"/>
        <path d="M193 34.8c0 10.1.7 12.2 4.2 12.2 2.2 0 2.4-2.6.2-3.4-1.4-.5-1.6-2-1.2-9.6.4-8.2.2-9-1.4-9-1.6 0-1.8 1-1.8 9.8z" fill="#02cf8b" data-color="1"/>
        <path d="M61 36.5c0 9.8.1 10.5 2 10.5s2-.7 2-10.5S64.9 26 63 26s-2 .7-2 10.5z" fill="#02cf8b" data-color="1"/>
        <path d="M170 27.2c-2.8 1.5-3.9 6-2 8.3.7.8 2.7 1.7 4.6 2.1 3.6.7 5.9 2.7 4.9 4.4-.9 1.4-5.8 1.3-7.3-.2-.9-.9-1.5-.9-2.4 0-3.2 3.2 6.3 6.6 10.8 3.8 2.1-1.4 2.5-2.4 2.2-5.4-.3-3.5-.6-3.8-5-5.1-3.5-1-4.8-2-4.8-3.3 0-2.1 4.8-2.6 6.8-.6.9.9 1.3.7 1.8-.6.4-1 .3-2.1-.2-2.6-1.7-1.7-6.8-2.1-9.4-.8z" fill="#02cf8b" data-color="1"/>
        <path d="M88 29.5c0 .8-.4 1.5-1 1.5-.5 0-1 .7-1 1.5s.5 1.5 1 1.5c.6 0 1 2.2 1 4.9 0 6.6 2.7 9.3 7.4 7.5 2-.8.9-3.4-1.5-3.4-1.5 0-1.9-.7-1.9-3.5 0-1.9-.1-3.8-.2-4.3-.2-.4.7-.8 2-1 3-.5 2.9-3.2-.3-3.2-1.8 0-2.3-.4-1.9-1.5.4-1 0-1.5-1.5-1.5-1.2 0-2.1.6-2.1 1.5z" fill="#02cf8b" data-color="1"/>
        <path d="M124.7 30.4c-.4.9-1.4 1.2-2.6.9-4.5-1.2-8.9 4.5-5.9 7.5.8.8.8 1.5-.2 2.7-.9 1.1-1 1.8-.1 2.9.9 1.1.8 1.5-.4 2-1 .3-1.5 1.5-1.3 2.8.6 4.5 12 5 13.7.5 1.4-3.5-.4-5.5-5.2-5.9-4.9-.3-5.2-2-.6-3 3.8-.7 5.1-2.4 4.3-6-.3-1.4 0-2.9.6-3.3 1.1-.7.4-2.5-1-2.5-.4 0-1 .6-1.3 1.4zm-1.2 5.6c0 .8-1 1.6-2.2 1.8-1.8.3-2.3-.2-2.3-1.8s.5-2.1 2.3-1.8c1.2.2 2.2 1 2.2 1.8zm1.3 12.2c-.3.7-2 1.3-3.8 1.3-1.8 0-3.5-.6-3.7-1.3-.3-.8.8-1.2 3.7-1.2 2.9 0 4 .4 3.8 1.2z" fill="#02cf8b" data-color="1"/>
        <path d="M70 39c0 6.4.3 8 1.5 8 1.1 0 1.5-1.2 1.5-4.9 0-3.2.6-5.5 1.6-6.5 3.3-3.4 4.8-1.3 4.5 6.1-.2 4.7 0 5.3 1.8 5.3 1.9 0 2.1-.6 2.1-6.4 0-8.8-3.5-12.2-8.2-7.9-1.7 1.5-1.8 1.5-1.8 0 0-1-.7-1.7-1.5-1.7-1.2 0-1.5 1.6-1.5 8z" fill="#02cf8b" data-color="1"/>
        <path d="M100.9 32.9c-3.3 2.7-3.3 9.5 0 12.2 2.8 2.3 5.9 2.4 9 .3 2.9-2.1 1.4-4.1-1.8-2.5-2.4 1.3-6.1-.1-6.1-2.2 0-.8 1.6-1.1 5-.9 4.8.4 5 .3 5-2.2 0-5.7-6.5-8.4-11.1-4.7zm7.1 2.6c1.1 1.3.7 1.5-2.5 1.5s-3.6-.2-2.5-1.5c.7-.8 1.8-1.5 2.5-1.5s1.8.7 2.5 1.5z" fill="#02cf8b" data-color="1"/>
        <path d="M131 39c0 7.3.2 8 2 8 1.6 0 1.9-.8 2.2-5.7.3-4.9.6-5.8 2.3-6.2 1.9-.3 3.5-1.8 3.5-3.4 0-1.1-3.5-.8-4.8.5-.9.9-1.2.9-1.2 0 0-.7-.9-1.2-2-1.2-1.8 0-2 .7-2 8z" fill="#02cf8b" data-color="1"/>
        <path d="M144.8 32.1c-1 .5-1.8 1.7-1.8 2.6 0 1.1.5 1.3 1.8.8 2.7-1.2 5.5-1.1 5.9.1.2.7-1.5 1.8-3.9 2.5-3.5 1.2-4.4 1.9-4.6 4.1-.4 3.6 3.7 5.9 6.9 4 1.5-1 2.3-.9 3.9 0 2.5 1.6 3.8.3 2.2-2.2-.7-1.1-1.2-4-1.2-6.5 0-3.4-.5-4.7-1.9-5.5-2.5-1.3-5.1-1.2-7.3.1zm6.2 7.8c0 2.3-1.4 4.1-3.1 4.1-2.4 0-2.6-3.7-.1-4.3 2.8-.8 3.2-.7 3.2.2z" fill="#02cf8b" data-color="1"/>
        <path d="M185 39c0 7.5.1 8 2.1 8 1.5 0 1.9-.4 1.5-1.6-.3-.9-.6-4.5-.6-8 0-5-.3-6.4-1.5-6.4s-1.5 1.6-1.5 8z" fill="#02cf8b" data-color="1"/>
        <path d="M204.5 32.2c-2.9 1.6-3.5 2.8-3.5 7 0 5.8 5.4 9.3 10.7 6.9 4.2-1.9 1.7-4.5-2.7-2.7-1.8.7-3.7-.4-4.2-2.4-.2-1.1.8-1.4 4.7-1.5 4.7 0 5-.1 4.7-2.5-.2-2.8-3.5-6-6.1-6-.9 0-2.5.6-3.6 1.2zm6.3 3.5c.2.9-.8 1.3-3.3 1.3-3.3 0-3.6-.2-2.5-1.5 1.5-1.8 5.1-1.6 5.8.2z" fill="#02cf8b" data-color="1"/>
        <path d="M218 39c0 7.3.2 8 2 8s2-.7 2-5.4c0-6.2 1.9-8.8 4.6-6.5 1.2 1 1.5 2.6 1.2 6.6-.4 4.9-.3 5.3 1.7 5.3s2.1-.4 1.7-6.8c-.2-3.7-.9-7.3-1.4-8-1.4-1.7-4.8-1.5-7 .5-1.7 1.5-1.8 1.5-1.8 0 0-1-.7-1.7-1.5-1.7-1.2 0-1.5 1.6-1.5 8z" fill="#02cf8b" data-color="1"/>
        <path d="M237.6 33.1c-2 1.6-2.6 2.9-2.6 5.9 0 3 .6 4.3 2.6 5.9 3.3 2.6 5.5 2.6 8.5.2 1.9-1.5 2.1-2.2 1.2-3.2-.9-.9-1.5-.8-2.9.5-2 2.1-3.5 1.7-5.1-1.5-1-1.9-1-2.8.1-4.3 1.7-2.7 3.1-3 4.9-1.2 1.3 1.4 1.6 1.4 2.8 0 1.1-1.4 1-1.8-.6-3-2.7-2-5.8-1.7-8.9.7z" fill="#02cf8b" data-color="1"/>
        <path d="M252.9 32.9c-1.8 1.4-2.4 2.9-2.4 6.1 0 6.8 6 10.2 11.4 6.4 2.9-2.1 1.4-4.1-1.8-2.5-2.5 1.4-6.1-.1-6.1-2.4 0-1.1 1.1-1.3 5-.8l5 .6v-3.1c0-5.5-6.5-8.1-11.1-4.3zm7.1 2.6c1.1 1.3.7 1.5-2.5 1.5s-3.6-.2-2.5-1.5c.7-.8 1.8-1.5 2.5-1.5s1.8.7 2.5 1.5z" fill="#02cf8b" data-color="1"/>
        <path d="M267.4 43.5c-.7 1.8.3 3.5 2.1 3.5 1.5 0 2.4-1.9 1.8-3.8-.6-1.7-3.2-1.5-3.9.3z" fill="#02cf8b" data-color="1"/>
    </g>
</svg>
